<svg width="171" height="170" viewBox="0 0 171 170" fill="none" xmlns="http://www.w3.org/2000/svg">
<path d="M13.7024 50.1835V31.4292C13.7024 26.4552 15.6783 21.685 19.1954 18.1678C22.7125 14.6507 27.4828 12.6748 32.4568 12.6748H51.2111M13.7024 125.201V143.955C13.7024 148.929 15.6783 153.7 19.1954 157.217C22.7125 160.734 27.4828 162.71 32.4568 162.71H51.2111M126.229 12.6748H144.983C149.957 12.6748 154.727 14.6507 158.244 18.1678C161.761 21.685 163.737 26.4552 163.737 31.4292V50.1835M126.229 162.71H144.983C149.957 162.71 154.727 160.734 158.244 157.217C161.761 153.7 163.737 148.929 163.737 143.955V125.201" stroke="#2154E3" stroke-width="13.2774" stroke-linecap="round" stroke-linejoin="round"/>
<path d="M6.63867 44.1474V25.393C6.63867 20.4191 8.61457 15.6488 12.1317 12.1317C15.6488 8.61457 20.4191 6.63867 25.393 6.63867H44.1474M6.63867 119.165V137.919C6.63867 142.893 8.61457 147.663 12.1317 151.181C15.6488 154.698 20.4191 156.674 25.393 156.674H44.1474M119.165 6.63867H137.919C142.893 6.63867 147.663 8.61457 151.181 12.1317C154.698 15.6488 156.674 20.4191 156.674 25.393V44.1474M119.165 156.674H137.919C142.893 156.674 147.663 154.698 151.181 151.181C154.698 147.663 156.674 142.893 156.674 137.919V119.165" stroke="#C4D5F9" stroke-width="13.2774" stroke-linecap="round" stroke-linejoin="round"/>
<path d="M87.3299 87.6305V37.1763L114.867 47.9062C116.436 48.5174 117.815 49.5335 118.864 50.851C119.913 52.1686 120.594 53.7405 120.838 55.4068C121.082 57.0732 120.88 58.7743 120.252 60.3371C119.625 61.9 118.594 63.2686 117.266 64.3038L87.3299 87.6305Z" fill="#808080"/>
<path d="M87.3299 87.6305H137.784L127.054 115.167C126.443 116.736 125.427 118.116 124.109 119.165C122.792 120.213 121.22 120.895 119.554 121.138C117.887 121.382 116.186 121.18 114.623 120.553C113.06 119.925 111.692 118.895 110.657 117.567L87.3299 87.6305Z" fill="#808080"/>
<path d="M87.3299 87.6305L36.8757 87.63L47.6057 60.0932C48.2168 58.524 49.2329 57.1447 50.5505 56.0958C51.868 55.047 53.44 54.366 55.1063 54.1221C56.7726 53.8783 58.4738 54.0804 60.0366 54.7078C61.5994 55.3352 62.9681 56.3655 64.0033 57.6938L87.3299 87.6305Z" fill="#808080"/>
<path d="M87.324 87.6305V138.085L59.7872 127.355C58.2179 126.744 56.8387 125.727 55.7898 124.41C54.741 123.092 54.0599 121.52 53.8161 119.854C53.5723 118.188 53.7744 116.487 54.4018 114.924C55.0292 113.361 56.0595 111.992 57.3878 110.957L87.324 87.6305Z" fill="#808080"/>
<path d="M87.3299 87.6305V37.1763L114.867 47.9062C116.436 48.5174 117.815 49.5335 118.864 50.851C119.913 52.1686 120.594 53.7405 120.838 55.4068C121.082 57.0732 120.88 58.7743 120.252 60.3371C119.625 61.9 118.594 63.2686 117.266 64.3038L87.3299 87.6305ZM87.3299 87.6305H137.784L127.054 115.167C126.443 116.736 125.427 118.116 124.109 119.165C122.792 120.213 121.22 120.895 119.554 121.138C117.887 121.382 116.186 121.18 114.623 120.553C113.06 119.925 111.692 118.895 110.657 117.567L87.3299 87.6305ZM87.3299 87.6305L36.8757 87.63L47.6057 60.0932C48.2168 58.524 49.2329 57.1447 50.5505 56.0958C51.868 55.047 53.44 54.366 55.1063 54.1221C56.7726 53.8783 58.4738 54.0804 60.0366 54.7078C61.5994 55.3352 62.9681 56.3655 64.0033 57.6938L87.3299 87.6305ZM87.324 87.6305V138.085L59.7872 127.355C58.2179 126.744 56.8387 125.727 55.7898 124.41C54.741 123.092 54.0599 121.52 53.8161 119.854C53.5723 118.188 53.7744 116.487 54.4018 114.924C55.0292 113.361 56.0595 111.992 57.3878 110.957L87.324 87.6305Z" stroke="#808080" stroke-width="2.65548" stroke-linecap="round" stroke-linejoin="round"/>
<path d="M83.3468 82.3194V31.8652L110.884 42.5952C112.453 43.2063 113.832 44.2224 114.881 45.54C115.93 46.8575 116.611 48.4295 116.855 50.0958C117.098 51.7621 116.896 53.4633 116.269 55.0261C115.642 56.5889 114.611 57.9576 113.283 58.9928L83.3468 82.3194Z" fill="#CCCCCC"/>
<path d="M83.3468 82.3194H133.801L123.071 109.856C122.46 111.425 121.444 112.805 120.126 113.854C118.809 114.902 117.237 115.583 115.57 115.827C113.904 116.071 112.203 115.869 110.64 115.242C109.077 114.614 107.709 113.584 106.673 112.256L83.3468 82.3194Z" fill="#CCCCCC"/>
<path d="M83.3468 82.3194L32.8926 82.3189L43.6225 54.7822C44.2337 53.2129 45.2498 51.8337 46.5673 50.7848C47.8849 49.7359 49.4568 49.0549 51.1231 48.8111C52.7895 48.5673 54.4906 48.7693 56.0535 49.3967C57.6163 50.0241 58.985 51.0545 60.0201 52.3828L83.3468 82.3194Z" fill="#CCCCCC"/>
<path d="M83.3408 82.3194V132.774L55.804 122.044C54.2348 121.433 52.8555 120.416 51.8067 119.099C50.7578 117.781 50.0768 116.209 49.833 114.543C49.5891 112.877 49.7912 111.176 50.4186 109.613C51.046 108.05 52.0763 106.681 53.4047 105.646L83.3408 82.3194Z" fill="#CCCCCC"/>
<path d="M83.3468 82.3194V31.8652L110.884 42.5952C112.453 43.2063 113.832 44.2224 114.881 45.54C115.93 46.8575 116.611 48.4295 116.855 50.0958C117.098 51.7621 116.896 53.4633 116.269 55.0261C115.642 56.5889 114.611 57.9576 113.283 58.9928L83.3468 82.3194ZM83.3468 82.3194H133.801L123.071 109.856C122.46 111.425 121.444 112.805 120.126 113.854C118.809 114.902 117.237 115.583 115.57 115.827C113.904 116.071 112.203 115.869 110.64 115.242C109.077 114.614 107.709 113.584 106.673 112.256L83.3468 82.3194ZM83.3468 82.3194L32.8926 82.3189L43.6225 54.7822C44.2337 53.2129 45.2498 51.8337 46.5673 50.7848C47.8849 49.7359 49.4568 49.0549 51.1231 48.8111C52.7895 48.5673 54.4906 48.7693 56.0535 49.3967C57.6163 50.0241 58.985 51.0545 60.0201 52.3828L83.3468 82.3194ZM83.3408 82.3194V132.774L55.804 122.044C54.2348 121.433 52.8555 120.416 51.8067 119.099C50.7578 117.781 50.0768 116.209 49.833 114.543C49.5891 112.877 49.7912 111.176 50.4186 109.613C51.046 108.05 52.0763 106.681 53.4047 105.646L83.3408 82.3194Z" stroke="#CCCCCC" stroke-width="2.65548" stroke-linecap="round" stroke-linejoin="round"/>
<line x1="34.7426" y1="50.2193" x2="135.651" y2="50.2193" stroke="#769AF2" stroke-width="10.6219" stroke-linecap="round"/>
</svg>
