<svg width="242" height="171" viewBox="0 0 242 171" fill="none" xmlns="http://www.w3.org/2000/svg">
<g opacity="0.6">
<path d="M3.10815 19.0929C3.10815 21.192 3.52159 23.2705 4.32487 25.2098C5.12814 27.149 6.30552 28.9111 7.78977 30.3954C9.27403 31.8796 11.0361 33.057 12.9754 33.8603C14.9146 34.6635 16.9931 35.077 19.0922 35.077C21.1913 35.077 23.2698 34.6635 25.209 33.8603C27.1483 33.057 28.9104 31.8796 30.3946 30.3954C31.8789 28.9111 33.0563 27.149 33.8595 25.2098C34.6628 23.2705 35.0762 21.192 35.0762 19.0929C35.0762 16.9939 34.6628 14.9154 33.8595 12.9761C33.0563 11.0368 31.8789 9.27476 30.3946 7.79051C28.9104 6.30625 27.1483 5.12887 25.209 4.3256C23.2698 3.52233 21.1913 3.10889 19.0922 3.10889C16.9931 3.10889 14.9146 3.52233 12.9754 4.3256C11.0361 5.12887 9.27403 6.30625 7.78977 7.79051C6.30552 9.27476 5.12814 11.0368 4.32487 12.9761C3.52159 14.9154 3.10815 16.9939 3.10815 19.0929Z" fill="#2154E3" stroke="#2154E3" stroke-width="2.66401" stroke-linecap="round" stroke-linejoin="round"/>
<path d="M1.33203 17.3161C1.33203 19.4151 1.74547 21.4936 2.54874 23.4329C3.35202 25.3722 4.52939 27.1342 6.01365 28.6185C7.49791 30.1028 9.25997 31.2801 11.1992 32.0834C13.1385 32.8867 15.217 33.3001 17.3161 33.3001C19.4151 33.3001 21.4936 32.8867 23.4329 32.0834C25.3722 31.2801 27.1342 30.1028 28.6185 28.6185C30.1028 27.1342 31.2801 25.3722 32.0834 23.4329C32.8867 21.4936 33.3001 19.4151 33.3001 17.3161C33.3001 15.217 32.8867 13.1385 32.0834 11.1992C31.2801 9.25997 30.1028 7.49791 28.6185 6.01365C27.1342 4.52939 25.3722 3.35202 23.4329 2.54874C21.4936 1.74547 19.4151 1.33203 17.3161 1.33203C15.217 1.33203 13.1385 1.74547 11.1992 2.54874C9.25997 3.35202 7.49791 4.52939 6.01365 6.01365C4.52939 7.49791 3.35202 9.25997 2.54874 11.1992C1.74547 13.1385 1.33203 15.217 1.33203 17.3161Z" fill="#C4D5F9"/>
<path d="M22.2889 11.9883C21.9672 11.4303 21.4997 10.9702 20.9366 10.6573C20.3735 10.3445 19.7359 10.1907 19.0921 10.2123H15.5401C14.598 10.2123 13.6946 10.5866 13.0284 11.2527C12.3623 11.9188 11.9881 12.8223 11.9881 13.7643C11.9881 14.7064 12.3623 15.6099 13.0284 16.276C13.6946 16.9421 14.598 17.3164 15.5401 17.3164H19.0921C20.0341 17.3164 20.9376 17.6906 21.6037 18.3567C22.2699 19.0228 22.6441 19.9263 22.6441 20.8684C22.6441 21.8104 22.2699 22.7139 21.6037 23.38C20.9376 24.0461 20.0341 24.4204 19.0921 24.4204H15.5401C14.8963 24.4421 14.2587 24.2882 13.6955 23.9754C13.1324 23.6625 12.665 23.2025 12.3433 22.6444" fill="#C4D5F9"/>
<path d="M17.3161 8.43605V26.1961Z" fill="#C4D5F9"/>
<path d="M22.2889 11.9883C21.9672 11.4303 21.4997 10.9702 20.9366 10.6573C20.3735 10.3445 19.7359 10.1907 19.0921 10.2123H15.5401C14.598 10.2123 13.6946 10.5866 13.0284 11.2527C12.3623 11.9188 11.9881 12.8223 11.9881 13.7643C11.9881 14.7064 12.3623 15.6099 13.0284 16.276C13.6946 16.9421 14.598 17.3164 15.5401 17.3164H19.0921C20.0341 17.3164 20.9376 17.6906 21.6037 18.3567C22.2699 19.0228 22.6441 19.9263 22.6441 20.8684C22.6441 21.8104 22.2699 22.7139 21.6037 23.38C20.9376 24.0461 20.0341 24.4204 19.0921 24.4204H15.5401C14.8963 24.4421 14.2587 24.2882 13.6955 23.9754C13.1324 23.6625 12.665 23.2025 12.3433 22.6444M17.3161 8.43605V26.1961M1.33203 17.3161C1.33203 19.4151 1.74547 21.4936 2.54874 23.4329C3.35202 25.3722 4.52939 27.1342 6.01365 28.6185C7.49791 30.1028 9.25997 31.2801 11.1992 32.0834C13.1385 32.8867 15.217 33.3001 17.3161 33.3001C19.4151 33.3001 21.4936 32.8867 23.4329 32.0834C25.3722 31.2801 27.1342 30.1028 28.6185 28.6185C30.1028 27.1342 31.2801 25.3722 32.0834 23.4329C32.8867 21.4936 33.3001 19.4151 33.3001 17.3161C33.3001 15.217 32.8867 13.1385 32.0834 11.1992C31.2801 9.25997 30.1028 7.49791 28.6185 6.01365C27.1342 4.52939 25.3722 3.35202 23.4329 2.54874C21.4936 1.74547 19.4151 1.33203 17.3161 1.33203C15.217 1.33203 13.1385 1.74547 11.1992 2.54874C9.25997 3.35202 7.49791 4.52939 6.01365 6.01365C4.52939 7.49791 3.35202 9.25997 2.54874 11.1992C1.74547 13.1385 1.33203 15.217 1.33203 17.3161Z" stroke="#2154E3" stroke-width="2.66401" stroke-linecap="round" stroke-linejoin="round"/>
</g>
<g opacity="0.8">
<path d="M191.564 61.7734C191.564 64.9219 192.185 68.0397 193.39 70.9486C194.594 73.8575 196.36 76.5006 198.587 78.7269C200.813 80.9533 203.456 82.7194 206.365 83.9243C209.274 85.1292 212.392 85.7493 215.54 85.7493C218.689 85.7493 221.807 85.1292 224.716 83.9243C227.625 82.7194 230.268 80.9533 232.494 78.7269C234.72 76.5006 236.486 73.8575 237.691 70.9486C238.896 68.0397 239.516 64.9219 239.516 61.7734C239.516 58.6248 238.896 55.507 237.691 52.5981C236.486 49.6892 234.72 47.0461 232.494 44.8198C230.268 42.5934 227.625 40.8273 224.716 39.6224C221.807 38.4175 218.689 37.7974 215.54 37.7974C212.392 37.7974 209.274 38.4175 206.365 39.6224C203.456 40.8273 200.813 42.5934 198.587 44.8198C196.36 47.0461 194.594 49.6892 193.39 52.5981C192.185 55.507 191.564 58.6248 191.564 61.7734Z" fill="#2154E3" stroke="#2154E3" stroke-width="3.996" stroke-linecap="round" stroke-linejoin="round"/>
<path d="M188.9 59.1098C188.9 62.2584 189.521 65.3761 190.725 68.285C191.93 71.1939 193.696 73.837 195.923 76.0634C198.149 78.2897 200.792 80.0558 203.701 81.2607C206.61 82.4656 209.728 83.0858 212.876 83.0858C216.025 83.0858 219.143 82.4656 222.052 81.2607C224.96 80.0558 227.604 78.2897 229.83 76.0634C232.056 73.837 233.822 71.1939 235.027 68.285C236.232 65.3761 236.852 62.2584 236.852 59.1098C236.852 55.9612 236.232 52.8435 235.027 49.9346C233.822 47.0257 232.056 44.3826 229.83 42.1562C227.604 39.9298 224.96 38.1638 222.052 36.9589C219.143 35.7539 216.025 35.1338 212.876 35.1338C209.728 35.1338 206.61 35.7539 203.701 36.9589C200.792 38.1638 198.149 39.9298 195.923 42.1562C193.696 44.3826 191.93 47.0257 190.725 49.9346C189.521 52.8435 188.9 55.9612 188.9 59.1098Z" fill="#C4D5F9"/>
<path d="M220.336 51.1182C219.853 50.2811 219.152 49.5909 218.307 49.1217C217.462 48.6524 216.506 48.4217 215.54 48.4542H210.212C208.799 48.4542 207.444 49.0155 206.445 50.0147C205.446 51.0139 204.884 52.3691 204.884 53.7822C204.884 55.1953 205.446 56.5505 206.445 57.5497C207.444 58.5489 208.799 59.1102 210.212 59.1102H215.54C216.953 59.1102 218.309 59.6715 219.308 60.6707C220.307 61.6699 220.868 63.0251 220.868 64.4382C220.868 65.8513 220.307 67.2065 219.308 68.2057C218.309 69.2049 216.953 69.7662 215.54 69.7662H210.212C209.247 69.7987 208.29 69.568 207.446 69.0987C206.601 68.6295 205.9 67.9393 205.417 67.1022" fill="#C4D5F9"/>
<path d="M212.876 45.7898V72.4298Z" fill="#C4D5F9"/>
<path d="M220.336 51.1182C219.853 50.2811 219.152 49.5909 218.307 49.1217C217.462 48.6524 216.506 48.4217 215.54 48.4542H210.212C208.799 48.4542 207.444 49.0155 206.445 50.0147C205.446 51.0139 204.884 52.3691 204.884 53.7822C204.884 55.1953 205.446 56.5505 206.445 57.5497C207.444 58.5489 208.799 59.1102 210.212 59.1102H215.54C216.953 59.1102 218.309 59.6715 219.308 60.6707C220.307 61.6699 220.868 63.0251 220.868 64.4382C220.868 65.8513 220.307 67.2065 219.308 68.2057C218.309 69.2049 216.953 69.7662 215.54 69.7662H210.212C209.247 69.7987 208.29 69.568 207.446 69.0987C206.601 68.6295 205.9 67.9393 205.417 67.1022M212.876 45.7898V72.4298M188.9 59.1098C188.9 62.2584 189.521 65.3761 190.725 68.285C191.93 71.1939 193.696 73.837 195.923 76.0634C198.149 78.2897 200.792 80.0558 203.701 81.2607C206.61 82.4656 209.728 83.0858 212.876 83.0858C216.025 83.0858 219.143 82.4656 222.052 81.2607C224.96 80.0558 227.604 78.2897 229.83 76.0634C232.056 73.837 233.822 71.1939 235.027 68.285C236.232 65.3761 236.852 62.2584 236.852 59.1098C236.852 55.9612 236.232 52.8435 235.027 49.9346C233.822 47.0257 232.056 44.3826 229.83 42.1562C227.604 39.9298 224.96 38.1638 222.052 36.9589C219.143 35.7539 216.025 35.1338 212.876 35.1338C209.728 35.1338 206.61 35.7539 203.701 36.9589C200.792 38.1638 198.149 39.9298 195.923 42.1562C193.696 44.3826 191.93 47.0257 190.725 49.9346C189.521 52.8435 188.9 55.9612 188.9 59.1098Z" stroke="#2154E3" stroke-width="3.996" stroke-linecap="round" stroke-linejoin="round"/>
</g>
<path fill-rule="evenodd" clip-rule="evenodd" d="M173.323 39.0564C173.323 28.699 164.901 20.3027 154.512 20.3027H111.382C106.393 20.3027 101.608 22.2786 98.0804 25.7955L65.9686 57.81C62.4409 61.327 60.459 66.097 60.459 71.0708V151.578C60.459 161.935 68.8809 170.332 79.2697 170.332H154.512C164.901 170.332 173.323 161.935 173.323 151.578V39.0564Z" fill="#2154E3"/>
<path fill-rule="evenodd" clip-rule="evenodd" d="M165.738 30.6765C165.738 20.3191 157.316 11.9229 146.928 11.9229L70.8254 11.9322C60.9109 11.9334 52.8743 19.971 52.8743 29.8854V143.198C52.8743 153.556 61.2961 161.952 71.685 161.952H146.928C157.316 161.952 165.738 153.556 165.738 143.198V30.6765Z" fill="#E6E6E6"/>
<rect width="74.575" height="26.2394" rx="4.14306" transform="matrix(-1 0 0 1 144.322 28.5054)" fill="#769AF2"/>
<rect width="74.575" height="26.2394" rx="4.14306" transform="matrix(-1 0 0 1 144.322 28.5054)" fill="#769AF2"/>
<rect width="74.575" height="26.2394" rx="4.14306" transform="matrix(-1 0 0 1 144.322 28.5054)" fill="#C4D5F9"/>
<rect width="13.8102" height="12.4292" transform="matrix(-1 0 0 1 142.64 69.936)" fill="#769AF2"/>
<rect width="13.8102" height="12.4292" transform="matrix(-1 0 0 1 123.306 69.936)" fill="#769AF2"/>
<rect width="13.8102" height="12.4292" transform="matrix(-1 0 0 1 103.972 69.936)" fill="#769AF2"/>
<rect width="13.8102" height="12.4292" transform="matrix(-1 0 0 1 84.6377 69.936)" fill="#769AF2"/>
<rect width="13.8102" height="12.4292" transform="matrix(-1 0 0 1 142.64 88.3652)" fill="#769AF2"/>
<rect width="13.8102" height="12.4292" transform="matrix(-1 0 0 1 123.306 88.3652)" fill="#769AF2"/>
<rect width="13.8102" height="12.4292" transform="matrix(-1 0 0 1 103.972 88.3652)" fill="#769AF2"/>
<rect width="13.8102" height="12.4292" transform="matrix(-1 0 0 1 84.6377 88.3652)" fill="#769AF2"/>
<rect width="35.2436" height="12.153" rx="1.92912" transform="matrix(-1 0 0 1 144.841 127.433)" fill="#769AF2"/>
<path d="M88.1033 38.6955C87.8656 38.2832 87.5202 37.9432 87.1041 37.7121C86.6881 37.4809 86.217 37.3673 85.7413 37.3833H83.1167C82.4207 37.3833 81.7531 37.6598 81.2609 38.152C80.7687 38.6442 80.4922 39.3117 80.4922 40.0078C80.4922 40.7039 80.7687 41.3714 81.2609 41.8636C81.7531 42.3558 82.4207 42.6323 83.1167 42.6323H85.7413C86.4373 42.6323 87.1049 42.9088 87.5971 43.401C88.0893 43.8932 88.3658 44.5608 88.3658 45.2569C88.3658 45.9529 88.0893 46.6205 87.5971 47.1127C87.1049 47.6049 86.4373 47.8814 85.7413 47.8814H83.1167C82.641 47.8974 82.1699 47.7838 81.7538 47.5526C81.3377 47.3215 80.9924 46.9815 80.7546 46.5691M84.429 36.0708V49.1935" stroke="#2154E3" stroke-width="2.34333" stroke-linecap="round" stroke-linejoin="round"/>
<path d="M102.673 38.6955C102.435 38.2832 102.09 37.9432 101.673 37.7121C101.257 37.4809 100.786 37.3673 100.311 37.3833H97.6861C96.99 37.3833 96.3224 37.6598 95.8302 38.152C95.338 38.6442 95.0615 39.3117 95.0615 40.0078C95.0615 40.7039 95.338 41.3714 95.8302 41.8636C96.3224 42.3558 96.99 42.6323 97.6861 42.6323H100.311C101.007 42.6323 101.674 42.9088 102.166 43.401C102.659 43.8932 102.935 44.5608 102.935 45.2569C102.935 45.9529 102.659 46.6205 102.166 47.1127C101.674 47.6049 101.007 47.8814 100.311 47.8814H97.6861C97.2103 47.8974 96.7392 47.7838 96.3232 47.5526C95.9071 47.3215 95.5617 46.9815 95.324 46.5691M98.9983 36.0708V49.1935" stroke="#2154E3" stroke-width="2.34333" stroke-linecap="round" stroke-linejoin="round"/>
<path d="M117.242 38.6955C117.005 38.2832 116.659 37.9432 116.243 37.7121C115.827 37.4809 115.356 37.3673 114.88 37.3833H112.256C111.56 37.3833 110.892 37.6598 110.4 38.152C109.908 38.6442 109.631 39.3117 109.631 40.0078C109.631 40.7039 109.908 41.3714 110.4 41.8636C110.892 42.3558 111.56 42.6323 112.256 42.6323H114.88C115.576 42.6323 116.244 42.9088 116.736 43.401C117.228 43.8932 117.505 44.5608 117.505 45.2569C117.505 45.9529 117.228 46.6205 116.736 47.1127C116.244 47.6049 115.576 47.8814 114.88 47.8814H112.256C111.78 47.8974 111.309 47.7838 110.893 47.5526C110.477 47.3215 110.131 46.9815 109.894 46.5691M113.568 36.0708V49.1935" stroke="#2154E3" stroke-width="2.34333" stroke-linecap="round" stroke-linejoin="round"/>
<path d="M131.812 38.6955C131.574 38.2832 131.229 37.9432 130.813 37.7121C130.397 37.4809 129.925 37.3673 129.45 37.3833H126.825C126.129 37.3833 125.462 37.6598 124.969 38.152C124.477 38.6442 124.201 39.3117 124.201 40.0078C124.201 40.7039 124.477 41.3714 124.969 41.8636C125.462 42.3558 126.129 42.6323 126.825 42.6323H129.45C130.146 42.6323 130.813 42.9088 131.306 43.401C131.798 43.8932 132.074 44.5608 132.074 45.2569C132.074 45.9529 131.798 46.6205 131.306 47.1127C130.813 47.6049 130.146 47.8814 129.45 47.8814H126.825C126.35 47.8974 125.878 47.7838 125.462 47.5526C125.046 47.3215 124.701 46.9815 124.463 46.5691M128.137 36.0708V49.1935" stroke="#2154E3" stroke-width="2.34333" stroke-linecap="round" stroke-linejoin="round"/>
<path d="M29.6985 140.649C29.6985 144.264 30.4105 147.844 31.7939 151.184C33.1774 154.524 35.2051 157.559 37.7613 160.115C40.3176 162.671 43.3522 164.699 46.6921 166.082C50.032 167.466 53.6117 168.178 57.2267 168.178C60.8418 168.178 64.4214 167.466 67.7613 166.082C71.1012 164.699 74.1359 162.671 76.6921 160.115C79.2484 157.559 81.2761 154.524 82.6595 151.184C84.0429 147.844 84.755 144.264 84.755 140.649C84.755 137.034 84.0429 133.455 82.6595 130.115C81.2761 126.775 79.2484 123.74 76.6921 121.184C74.1359 118.628 71.1012 116.6 67.7613 115.217C64.4214 113.833 60.8418 113.121 57.2267 113.121C53.6117 113.121 50.032 113.833 46.6921 115.217C43.3522 116.6 40.3176 118.628 37.7613 121.184C35.2051 123.74 33.1774 126.775 31.7939 130.115C30.4105 133.455 29.6985 137.034 29.6985 140.649Z" fill="#2154E3" stroke="#2154E3" stroke-width="4.58804" stroke-linecap="round" stroke-linejoin="round"/>
<path d="M26.6399 137.591C26.6399 141.206 27.3519 144.785 28.7354 148.125C30.1188 151.465 32.1465 154.5 34.7027 157.056C37.259 159.612 40.2937 161.64 43.6335 163.024C46.9734 164.407 50.5531 165.119 54.1681 165.119C57.7832 165.119 61.3629 164.407 64.7027 163.024C68.0426 161.64 71.0773 159.612 73.6335 157.056C76.1898 154.5 78.2175 151.465 79.6009 148.125C80.9843 144.785 81.6964 141.206 81.6964 137.591C81.6964 133.976 80.9843 130.396 79.6009 127.056C78.2175 123.716 76.1898 120.682 73.6335 118.125C71.0773 115.569 68.0426 113.541 64.7027 112.158C61.3629 110.775 57.7832 110.062 54.1681 110.062C50.5531 110.062 46.9734 110.775 43.6335 112.158C40.2937 113.541 37.259 115.569 34.7027 118.125C32.1465 120.682 30.1188 123.716 28.7354 127.056C27.3519 130.396 26.6399 133.976 26.6399 137.591Z" fill="#C4D5F9"/>
<path d="M62.7325 128.415C62.1784 127.454 61.3733 126.662 60.4035 126.123C59.4337 125.584 58.3356 125.319 57.2268 125.356H51.1094C49.487 125.356 47.931 126.001 46.7838 127.148C45.6366 128.295 44.9921 129.851 44.9921 131.474C44.9921 133.096 45.6366 134.652 46.7838 135.799C47.931 136.947 49.487 137.591 51.1094 137.591H57.2268C58.8493 137.591 60.4052 138.236 61.5525 139.383C62.6997 140.53 63.3442 142.086 63.3442 143.709C63.3442 145.331 62.6997 146.887 61.5525 148.034C60.4052 149.181 58.8493 149.826 57.2268 149.826H51.1094C50.0006 149.863 48.9026 149.598 47.9327 149.06C46.9629 148.521 46.1579 147.728 45.6038 146.767" fill="#C4D5F9"/>
<path d="M54.1681 122.297V152.884Z" fill="#C4D5F9"/>
<path d="M62.7325 128.415C62.1784 127.454 61.3733 126.662 60.4035 126.123C59.4337 125.584 58.3356 125.319 57.2268 125.356H51.1094C49.487 125.356 47.931 126.001 46.7838 127.148C45.6366 128.295 44.9921 129.851 44.9921 131.474C44.9921 133.096 45.6366 134.652 46.7838 135.799C47.931 136.947 49.487 137.591 51.1094 137.591H57.2268C58.8493 137.591 60.4052 138.236 61.5525 139.383C62.6997 140.53 63.3442 142.086 63.3442 143.709C63.3442 145.331 62.6997 146.887 61.5525 148.034C60.4052 149.181 58.8493 149.826 57.2268 149.826H51.1094C50.0006 149.863 48.9026 149.598 47.9327 149.06C46.9629 148.521 46.1579 147.728 45.6038 146.767M54.1681 122.297V152.884M26.6399 137.591C26.6399 141.206 27.3519 144.785 28.7354 148.125C30.1188 151.465 32.1465 154.5 34.7027 157.056C37.259 159.612 40.2937 161.64 43.6335 163.024C46.9734 164.407 50.5531 165.119 54.1681 165.119C57.7832 165.119 61.3629 164.407 64.7027 163.024C68.0426 161.64 71.0773 159.612 73.6335 157.056C76.1898 154.5 78.2175 151.465 79.6009 148.125C80.9843 144.785 81.6964 141.206 81.6964 137.591C81.6964 133.976 80.9843 130.396 79.6009 127.056C78.2175 123.716 76.1898 120.682 73.6335 118.125C71.0773 115.569 68.0426 113.541 64.7027 112.158C61.3629 110.775 57.7832 110.062 54.1681 110.062C50.5531 110.062 46.9734 110.775 43.6335 112.158C40.2937 113.541 37.259 115.569 34.7027 118.125C32.1465 120.682 30.1188 123.716 28.7354 127.056C27.3519 130.396 26.6399 133.976 26.6399 137.591Z" stroke="#2154E3" stroke-width="4.58804" stroke-linecap="round" stroke-linejoin="round"/>
</svg>
