<svg width="285" height="169" viewBox="0 0 285 169" fill="none" xmlns="http://www.w3.org/2000/svg">
<path d="M36.0621 112.029C17.0963 112.029 1.72168 97.0488 1.72168 78.5684C1.72168 60.0955 17.0963 45.1156 36.0621 45.1156C38.96 31.9644 49.2909 21.2314 63.1613 16.9547C77.0242 12.6854 92.3325 15.5141 103.305 24.4185C114.277 33.3004 119.247 46.8621 116.357 60.0134H123.657C137.763 60.0134 149.2 71.6569 149.2 86.0322C149.2 100.415 137.763 112.059 123.65 112.059H36.0621" fill="#999999"/>
<path d="M36.0621 112.029C17.0963 112.029 1.72168 97.0488 1.72168 78.5684C1.72168 60.0955 17.0963 45.1156 36.0621 45.1156C38.96 31.9644 49.2909 21.2314 63.1613 16.9547C77.0242 12.6854 92.3325 15.5141 103.305 24.4185C114.277 33.3004 119.247 46.8621 116.357 60.0134H123.657C137.763 60.0134 149.2 71.6569 149.2 86.0322C149.2 100.415 137.763 112.059 123.65 112.059H36.0621" stroke="#999999" stroke-width="3.44352" stroke-linecap="round" stroke-linejoin="round"/>
<path d="M136.799 154.877C112.322 154.877 92.4792 135.617 92.4792 111.857C92.4792 88.1059 112.322 68.8461 136.799 68.8461C140.539 51.9373 153.872 38.1378 171.773 32.6391C189.665 27.15 209.421 30.787 223.582 42.2354C237.743 53.6551 244.158 71.0916 240.427 88.0003H249.849C268.054 88.0003 282.815 102.971 282.815 121.453C282.815 139.945 268.054 154.916 249.839 154.916H136.799" fill="#CCCCCC"/>
<path d="M136.799 154.877C112.322 154.877 92.4792 135.617 92.4792 111.857C92.4792 88.1059 112.322 68.8461 136.799 68.8461C140.539 51.9373 153.872 38.1378 171.773 32.6391C189.665 27.15 209.421 30.787 223.582 42.2354C237.743 53.6551 244.158 71.0916 240.427 88.0003H249.849C268.054 88.0003 282.815 102.971 282.815 121.453C282.815 139.945 268.054 154.916 249.839 154.916H136.799" stroke="#CCCCCC" stroke-width="3.44352" stroke-linecap="round" stroke-linejoin="round"/>
<path fill-rule="evenodd" clip-rule="evenodd" d="M71.0491 28.9497C71.0491 17.9 80.0339 8.94238 91.1172 8.94238H137.131C142.454 8.94238 147.558 11.0503 151.322 14.8024L185.58 48.957C189.344 52.7091 191.458 57.7981 191.458 63.1043V148.994C191.458 160.043 182.473 169.001 171.39 169.001H91.1172C80.0339 169.001 71.0491 160.043 71.0491 148.994V28.9497Z" fill="#2154E3"/>
<path fill-rule="evenodd" clip-rule="evenodd" d="M79.1409 20.0073C79.1409 8.95759 88.1257 0 99.209 0H151.223C156.546 0 161.65 2.10791 165.414 5.86001L193.672 34.0146C197.436 37.7667 199.55 42.8557 199.55 48.1619V140.051C199.55 151.101 190.565 160.059 179.482 160.059H99.209C88.1257 160.059 79.1409 151.101 79.1409 140.051V20.0073Z" fill="#E6E6E6"/>
<rect x="98.7217" y="33" width="37" height="20" rx="2" fill="#2154E3"/>
<rect x="98.9075" y="68" width="79.9731" height="4.47091" fill="#2154E3"/>
<rect x="98.9075" y="84.0967" width="79.9731" height="4.47091" fill="#2154E3"/>
<rect x="98.9075" y="100.19" width="41.3344" height="4.47091" fill="#2154E3"/>
<path d="M158.722 3C158.722 3 162.137 3.75969 165.661 6.59961L195.163 36.0039C195.933 36.7714 196.633 37.596 197.261 38.4658C198.616 40.9473 199.544 44.9828 199.544 47H167.459C162.411 47 158.722 43.0226 158.722 38V3Z" fill="#769AF2"/>
<path d="M157.222 1C157.222 1 160.637 1.75969 164.161 4.59961L193.663 34.0039C195.108 35.4439 196.308 37.082 197.24 38.8525C197.714 39.8003 198.146 40.7998 198.484 41.7471C198.768 42.5848 198.997 43.4419 199.168 44.3135C199.202 44.5613 199.222 44.7914 199.222 45H165.959C160.911 45 157.222 41.0226 157.222 36V1Z" fill="#2154E3"/>
<path d="M153.722 138.118V141.059C153.722 141.839 154.032 142.587 154.583 143.139C155.135 143.69 155.883 144 156.663 144H174.31C175.09 144 175.838 143.69 176.39 143.139C176.941 142.587 177.251 141.839 177.251 141.059V138.118M158.133 129.294L165.486 136.647M165.486 136.647L172.839 129.294M165.486 136.647V119" stroke="#2154E3" stroke-width="4" stroke-linecap="round" stroke-linejoin="round"/>
</svg>
