<svg width="40" height="41" viewBox="0 0 40 41" fill="none" xmlns="http://www.w3.org/2000/svg">
<path d="M13.0996 0C25.6497 3.52096 27.3303 9.93783 26.8311 14.248L28.9355 7.58594L37.7217 5.76953C38.3871 19.3961 32.2675 22.7356 27.9668 23.418H35.1465L39.5234 31.249C28.8422 35.2041 23.5744 32.4912 20.9941 29.2207L22.7178 34.3643L16.6826 41C8.58788 30.9477 10.8191 24.7683 13.6875 21.5215L8.18262 25.6055L0 21.9248C7.26987 10.7791 14.0285 11.3466 17.9609 13.209L12.0361 8.90625L13.0996 0ZM17.4736 18.7129L19.0498 23.418H24.0391C23.9789 23.4072 23.9456 23.4011 23.9424 23.4004L25.4443 18.6426L21.4648 15.7529L17.4736 18.7129Z" fill="white"/>
</svg>
